# xmcd CD database file
#
# Track frame offsets:
#	150
#	1562
#	5432
#	10755
#	14667
#	21630
#	26542
#	32150
#	36120
#	44405
#	50525
#	54812
#	58707
#	67077
#	77295
#	83829
#	89942
#	94212
#	100182
#	105452
#	108912
#	117362
#	122287
#
# Disc length: 1721 seconds
#
# Revision: 0
# Processed by: cddbd v1.4PL0 Copyright (c) Steve Scherf et al.
# Submitted via: NeoAudio 9.9.9
#
DISCID=1a06b717
DTITLE=John Ganapes - More Blues You Can Use
DYEAR=1998
DGENRE=Blues
TTITLE0=Introduction
TTITLE1=Tuning
TTITLE2=Chord-On Bleu (Slow Tempo)
TTITLE3=Chord-On Bleu
TTITLE4=Drivin' Blues (Slow Tempo)
TTITLE5=Drivin' Blues
TTITLE6=Cheap Runs (Slow Tempo)
TTITLE7=Cheap Runs
TTITLE8=Blues A La Chord (Slow Tempo)
TTITLE9=Blues A La Chord
TTITLE10=Jumpin' Blues (Slow Tempo)
TTITLE11=Jumpin' Blues
TTITLE12=Big Bends
TTITLE13=True Trem Blues (Slow Tempo)
TTITLE14=True Trem Blues
TTITLE15=Tremblin' Tremolo (Slow Tempo)
TTITLE16=Tremblin' Tremolo
TTITLE17=Groovin' Easy
TTITLE18=Eight-Bar Boogie (Slow Tempo)
TTITLE19=Eight-Bar Boogie
TTITLE20=Makin' Changes
TTITLE21=Half-Steppin'
TTITLE22=Rakin' In The Funk
EXTD=YEAR: 1998
EXTT0=
EXTT1=
EXTT2=
EXTT3=
EXTT4=
EXTT5=
EXTT6=
EXTT7=
EXTT8=
EXTT9=
EXTT10=
EXTT11=
EXTT12=
EXTT13=
EXTT14=
EXTT15=
EXTT16=
EXTT17=
EXTT18=
EXTT19=
EXTT20=
EXTT21=
EXTT22=
PLAYORDER=
